<mxfile host="app.diagrams.net" modified="2021-12-16T09:20:47.557Z" agent="5.0 (Macintosh; Intel Mac OS X 10_15_7) AppleWebKit/537.36 (KHTML, like Gecko) Chrome/96.0.4664.45 Safari/537.36" etag="RlDm3I1hWqkk0kOaNMDh" version="15.9.4" type="github">
  <diagram id="-ZW55XtSvZrKgtjAkDXc" name="Page-1">
    <mxGraphModel dx="1061" dy="659" grid="1" gridSize="10" guides="1" tooltips="1" connect="1" arrows="1" fold="1" page="1" pageScale="1" pageWidth="827" pageHeight="1169" math="0" shadow="0">
      <root>
        <mxCell id="0" />
        <mxCell id="1" parent="0" />
        <mxCell id="kuHsM4dZnVJRhcR5TpLI-5" style="edgeStyle=orthogonalEdgeStyle;rounded=0;orthogonalLoop=1;jettySize=auto;html=1;exitX=1;exitY=0.5;exitDx=0;exitDy=0;entryX=0;entryY=0.5;entryDx=0;entryDy=0;" edge="1" parent="1" source="kuHsM4dZnVJRhcR5TpLI-1" target="kuHsM4dZnVJRhcR5TpLI-2">
          <mxGeometry relative="1" as="geometry" />
        </mxCell>
        <mxCell id="kuHsM4dZnVJRhcR5TpLI-6" style="edgeStyle=orthogonalEdgeStyle;rounded=0;orthogonalLoop=1;jettySize=auto;html=1;exitX=1;exitY=0;exitDx=0;exitDy=0;entryX=0;entryY=0;entryDx=0;entryDy=0;" edge="1" parent="1" source="kuHsM4dZnVJRhcR5TpLI-1" target="kuHsM4dZnVJRhcR5TpLI-2">
          <mxGeometry relative="1" as="geometry" />
        </mxCell>
        <mxCell id="kuHsM4dZnVJRhcR5TpLI-7" style="edgeStyle=orthogonalEdgeStyle;rounded=0;orthogonalLoop=1;jettySize=auto;html=1;exitX=1;exitY=1;exitDx=0;exitDy=0;entryX=0;entryY=1;entryDx=0;entryDy=0;" edge="1" parent="1" source="kuHsM4dZnVJRhcR5TpLI-1" target="kuHsM4dZnVJRhcR5TpLI-2">
          <mxGeometry relative="1" as="geometry" />
        </mxCell>
        <mxCell id="kuHsM4dZnVJRhcR5TpLI-1" value="域名" style="ellipse;whiteSpace=wrap;html=1;aspect=fixed;" vertex="1" parent="1">
          <mxGeometry x="50" y="260" width="80" height="80" as="geometry" />
        </mxCell>
        <mxCell id="kuHsM4dZnVJRhcR5TpLI-9" style="edgeStyle=orthogonalEdgeStyle;rounded=0;orthogonalLoop=1;jettySize=auto;html=1;exitX=1;exitY=0.5;exitDx=0;exitDy=0;entryX=0;entryY=0.5;entryDx=0;entryDy=0;" edge="1" parent="1" source="kuHsM4dZnVJRhcR5TpLI-2" target="kuHsM4dZnVJRhcR5TpLI-3">
          <mxGeometry relative="1" as="geometry" />
        </mxCell>
        <mxCell id="kuHsM4dZnVJRhcR5TpLI-2" value="动态加速&lt;br&gt;CNAME" style="ellipse;whiteSpace=wrap;html=1;aspect=fixed;" vertex="1" parent="1">
          <mxGeometry x="260" y="260" width="80" height="80" as="geometry" />
        </mxCell>
        <mxCell id="kuHsM4dZnVJRhcR5TpLI-11" style="edgeStyle=orthogonalEdgeStyle;rounded=0;orthogonalLoop=1;jettySize=auto;html=1;exitX=1;exitY=0.5;exitDx=0;exitDy=0;entryX=0;entryY=0.5;entryDx=0;entryDy=0;" edge="1" parent="1" source="kuHsM4dZnVJRhcR5TpLI-3" target="kuHsM4dZnVJRhcR5TpLI-4">
          <mxGeometry relative="1" as="geometry" />
        </mxCell>
        <mxCell id="kuHsM4dZnVJRhcR5TpLI-3" value="TLB&lt;br&gt;CNAME" style="ellipse;whiteSpace=wrap;html=1;aspect=fixed;" vertex="1" parent="1">
          <mxGeometry x="490" y="260" width="80" height="80" as="geometry" />
        </mxCell>
        <mxCell id="kuHsM4dZnVJRhcR5TpLI-4" value="服务" style="ellipse;whiteSpace=wrap;html=1;aspect=fixed;" vertex="1" parent="1">
          <mxGeometry x="710" y="260" width="80" height="80" as="geometry" />
        </mxCell>
        <mxCell id="kuHsM4dZnVJRhcR5TpLI-8" value="可选DNS厂商" style="text;html=1;align=center;verticalAlign=middle;resizable=0;points=[];autosize=1;strokeColor=none;fillColor=none;" vertex="1" parent="1">
          <mxGeometry x="140" y="340" width="90" height="20" as="geometry" />
        </mxCell>
        <mxCell id="kuHsM4dZnVJRhcR5TpLI-10" value="动态加速厂商提供" style="text;html=1;align=center;verticalAlign=middle;resizable=0;points=[];autosize=1;strokeColor=none;fillColor=none;" vertex="1" parent="1">
          <mxGeometry x="359" y="310" width="110" height="20" as="geometry" />
        </mxCell>
      </root>
    </mxGraphModel>
  </diagram>
</mxfile>
